<svg id="Bahan_copy_6" viewBox="0 0 64 64" xmlns="http://www.w3.org/2000/svg" xmlns:xlink="http://www.w3.org/1999/xlink" data-name="Bahan copy 6"><linearGradient id="linear-gradient" gradientUnits="userSpaceOnUse" x1="4" x2="60" y1="31.995" y2="31.995"><stop offset="0" stop-color="#ffa68d"/><stop offset="1" stop-color="#fd3a84"/></linearGradient><path d="m60 15.06v3.61c-1.34108.00009-5.8137-.00012-7.23 0v-6.61h4.23a3.00879 3.00879 0 0 1 3 3zm-56 30.27v3.6a3.00237 3.00237 0 0 0 3 3h4.23v-6.6c-1.4163.00008-5.88892-.00013-7.23 0zm9.23 6.6h5.91c.00015-1.30026-.0001-5.24154 0-6.6h-5.91zm7.91 0h5.91c.00015-1.30026-.00011-5.24154 0-6.6h-5.91zm7.91 0h5.9c.00015-1.30026-.0001-5.24154 0-6.6h-5.9zm7.9 0h5.91c.00014-1.30026-.00011-5.24154 0-6.6h-5.91zm7.91 0h5.91c.00015-1.30026-.00011-5.24154 0-6.6h-5.91zm7.91-6.6c.0002 1.37647-.00015 5.28234 0 6.6h4.23a3.00237 3.00237 0 0 0 3-3v-3.6c-1.317-.00006-5.83767 0-7.23 0zm-2-33.27h-5.91c-.00015 1.30067.0001 5.25083 0 6.61h5.91zm-7.91 0h-5.91c-.00014 1.30067.00011 5.25083 0 6.61h5.91zm-7.91 0h-5.9c-.00015 1.30067.0001 5.25083 0 6.61h5.9zm-7.9 0h-5.91c-.00014 1.30067.00011 5.25083 0 6.61h5.91zm-7.91 0h-5.91c-.00015 1.30067.00011 5.25083 0 6.61h5.91zm-7.91 6.61c-.0002-1.3772.00015-5.29181 0-6.61h-4.23a3.00879 3.00879 0 0 0 -3 3v3.61zm48.77 2v22.66h-56v-22.66zm-39.78 16.33h-.76v-10.36993a1.64023 1.64023 0 0 0 -2.78-1.15007l-1.18995 1.19a.99721.99721 0 0 0 1.41 1.41l.56-.56v9.48h-.52a1.0002 1.0002 0 0 0 -.00005 2h3.28a1.00012 1.00012 0 0 0 0-2zm9.96-8.28a3.72567 3.72567 0 0 0 -3.72-3.72 3.76494 3.76494 0 0 0 -4.1 3.72v6.55991c.0921 4.95806 7.72816 4.95626 7.82.00009zm8.6 2.54c.69234-.81776.5538-2.248.56007-3.26a3.00883 3.00883 0 0 0 -3-3h-1.52007a3.00872 3.00872 0 0 0 -3 3c.00215 1.00662-.13048 2.446.56 3.2601-1.37341.97324-.99983 3.2779-1.04 4.7399a3.00883 3.00883 0 0 0 3 3h2.48a3.00242 3.00242 0 0 0 3-3c-.03846-1.45349.33093-3.77262-1.04-4.74zm10.02-2.54a3.71713 3.71713 0 0 0 -3.70995-3.72 3.76492 3.76492 0 0 0 -4.10005 3.72v6.55991c.09205 4.9541 7.72247 4.961 7.81.00009zm-22.34-1.72a1.79059 1.79059 0 0 0 -2.1 1.72v6.55995c-.01009 2.30647 3.83 2.30837 3.82-.00005v-6.5599a1.71988 1.71988 0 0 0 -1.72-1.72zm18.63 0a1.7906 1.7906 0 0 0 -2.1 1.72v6.55995c-.00945 2.30176 3.8173 2.313 3.81-.00005v-6.55995a1.71774 1.71774 0 0 0 -1.71-1.71995zm-10.27 3.52h1.52a1.00292 1.00292 0 0 0 1-1v-1.52a1.003 1.003 0 0 0 -1-1h-1.52a1.003 1.003 0 0 0 -1 1v1.52a1.00291 1.00291 0 0 0 1 1zm2 2h-2.48a.9965.9965 0 0 0 -1 1v2.48a1.00291 1.00291 0 0 0 1 1h2.48a.99655.99655 0 0 0 1-1v-2.48a.99029.99029 0 0 0 -1-1z" fill="url(#linear-gradient)"/></svg>