<svg role="presentation" xmlns="http://www.w3.org/2000/svg" viewBox="0 0 16 16" aria-hidden="true" focusable="false">
    <path
        d="M10.005 15.005h-4.01v.982h4.01v-.982ZM8.47 0h-.982v2.12h.981V0Zm4.491 2.026-1.498 1.499.694.694 1.498-1.499-.694-.694ZM15.528 7.2H13.41v.981h2.12V7.2ZM2.59 7.243H.473v.981H2.59v-.981Zm.418-5.186-.693.694 1.498 1.498.694-.694-1.499-1.498Z">
    </path>
    <path
        d="M8 3.055a4.657 4.657 0 0 0-2.49 8.593v1.847l.49.493h4l.49-.493v-1.847A4.657 4.657 0 0 0 8 3.055Zm1.765 7.883-.255.14v1.927H6.49v-1.928l-.255-.14a3.677 3.677 0 1 1 3.53 0Z">
    </path>
</svg>