<svg viewBox="0 0 24 24">
    <path
        d="M23.7805.2195c.2925.293.2925.768 0 1.061l-22.5 22.5C1.134 23.927.942 24 .75 24c-.192 0-.384-.073-.5305-.2195-.2925-.293-.2925-.768 0-1.061l12.1967947-12.1971509c-2.3773758-.1150468-4.79162015.7286756-6.6038447 2.5401009-.3905.3905-1.0235.3905-1.414 0-.3905-.3905-.3905-1.024 0-1.414 2.65728981-2.65728981 6.3696459-3.62280965 9.8005664-2.90852144l2.430738-2.43186193C11.7816792 4.58111626 6.15198938 5.65271062 2.27735 9.52735c-.3905.3905-1.0235.3905-1.414 0-.3905-.3905-.3905-1.0235 0-1.414 4.6714534-4.67191574 11.571522-5.78608437 17.3096457-3.34843552L22.7195.2195c.293-.2925.768-.2925 1.061 0zM12 18.5c.6905 0 1.25.5595 1.25 1.25S12.6905 21 12 21s-1.25-.5595-1.25-1.25.5595-1.25 1.25-1.25zm1.4175-4.81495c.9705.2455 1.8905.741 2.6485 1.499.3905.3905.3905 1.0235 0 1.414-.1955.1955-.451.293-.707.293-.256 0-.512-.0975-.707-.293-.7835333-.7835333-1.8301422-1.1445778-2.8581093-1.0880116L11.574 15.52855l1.8435-1.8435zm3.8154-3.8154c.848.4725 1.649 1.059 2.3685 1.779.391.39.391 1.023 0 1.414-.195.195-.451.293-.707.293-.2555 0-.5115-.098-.707-.293-.7285-.728-1.5575-1.291-2.439-1.7085zm2.1908-2.1908l1.4425-1.4425c.8.545 1.5615 1.168 2.2705 1.877.3905.3905.3905 1.0235 0 1.414-.1955.1955-.451.293-.707.293-.256 0-.5115-.0975-.707-.293-.5933333-.59333333-1.2283333-1.11861111-1.895162-1.57959491L19.4237 7.67885l1.4425-1.4425z">
    </path>
</svg>