<svg enable-background="new 0 0 512 512" viewBox="0 0 512 512" xmlns="http://www.w3.org/2000/svg"
    xmlns:xlink="http://www.w3.org/1999/xlink">
    <linearGradient id="SVGID_1_" gradientUnits="userSpaceOnUse" x1="5.984" x2="506.016" y1="256" y2="256">
        <stop offset="0" stop-color="#0cafd5" />
        <stop offset="1" stop-color="#6d026d" />
    </linearGradient>
    <g>
        <path
            d="m477.24 92.46h-442.48c-15.86 0-28.77 12.91-28.77 28.77v269.55c0 15.86 12.91 28.77 28.77 28.77h442.49c15.86 0 28.77-12.91 28.77-28.77v-269.55c0-15.87-12.91-28.77-28.78-28.77zm8.76 298.31c0 4.83-3.93 8.76-8.76 8.76h-442.48c-4.83 0-8.76-3.93-8.76-8.76v-269.54c0-4.83 3.93-8.76 8.76-8.76h442.49c4.83 0 8.76 3.93 8.76 8.76v269.54zm-387.29-171.21c-4.68-4.68-4.68-12.25 0-16.92l26.56-26.56c4.65-4.65 12.25-4.65 16.89 0 2.35 2.35 3.52 5.41 3.52 8.48v111.6c0 6.6-5.36 11.96-11.96 11.96s-11.96-5.36-11.96-11.96v-82.72l-6.15 6.12c-4.66 4.68-12.26 4.68-16.9 0zm181.95 91.42h20.81c7.65 0 14.6-3.12 19.62-8.14s8.14-11.96 8.14-19.62v-42.86-42.89c0-7.65-3.12-14.6-8.14-19.62s-11.96-8.14-19.62-8.14h-20.81c-7.65 0-14.57 3.12-19.62 8.14-5.02 5.02-8.14 11.96-8.14 19.62v42.89 42.86c0 7.65 3.12 14.6 8.14 19.62 5.05 5.02 11.97 8.14 19.62 8.14zm-3.83-113.5c0-1.05.43-2.01 1.13-2.69.71-.71 1.64-1.13 2.69-1.13h20.81c1.05 0 2.01.43 2.69 1.13.71.68 1.13 1.64 1.13 2.69v30.93h-28.46v-30.93zm0 54.85h28.46v30.9c0 1.05-.43 2.01-1.13 2.69-.68.71-1.64 1.13-2.69 1.13h-20.81c-1.05 0-1.98-.43-2.69-1.13-.71-.68-1.13-1.64-1.13-2.69v-30.9zm101.8 58.65c10.52 0 20.07-4.28 26.96-11.2 6.92-6.89 11.23-16.44 11.23-26.96v-64.94c0-10.52-4.31-20.07-11.23-26.96-6.89-6.92-16.44-11.2-26.96-11.2-10.49 0-20.04 4.28-26.96 11.2-6.89 6.89-11.2 16.44-11.2 26.96v64.94c0 10.52 4.31 20.07 11.2 26.96 6.92 6.92 16.47 11.2 26.96 11.2zm-14.23-103.1c0-3.91 1.62-7.46 4.2-10.06 2.58-2.58 6.15-4.17 10.03-4.17 3.91 0 7.48 1.59 10.06 4.17 2.58 2.61 4.2 6.15 4.2 10.06v64.94c0 3.91-1.62 7.46-4.2 10.06-2.58 2.58-6.15 4.17-10.06 4.17-3.88 0-7.46-1.59-10.03-4.17-2.58-2.61-4.2-6.15-4.2-10.06zm-162.43 103.1c10.52 0 20.07-4.28 26.99-11.2 6.89-6.89 11.2-16.44 11.2-26.96v-64.94c0-10.52-4.31-20.07-11.2-26.96-6.92-6.92-16.47-11.2-26.99-11.2-10.49 0-20.04 4.28-26.96 11.2-6.89 6.89-11.2 16.44-11.2 26.96v64.94c0 10.52 4.31 20.07 11.2 26.96 6.92 6.92 16.47 11.2 26.96 11.2zm-14.23-103.1c0-3.91 1.62-7.46 4.2-10.06 2.58-2.58 6.15-4.17 10.03-4.17 3.91 0 7.48 1.59 10.06 4.17 2.58 2.61 4.2 6.15 4.2 10.06v64.94c0 3.91-1.62 7.46-4.2 10.06-2.58 2.58-6.15 4.17-10.06 4.17-3.88 0-7.46-1.59-10.03-4.17-2.58-2.61-4.2-6.15-4.2-10.06zm239.16 134.39c0 5.53-4.48 10.01-10.01 10.01h-321.78c-5.53 0-10.01-4.48-10.01-10.01s4.48-10.01 10.01-10.01h321.79c5.52.01 10 4.49 10 10.01z"
            fill="url(#SVGID_1_)" />
    </g>
</svg>