<svg viewBox="0 0 192 192" xmlns="http://www.w3.org/2000/svg" xmlns:xlink="http://www.w3.org/1999/xlink">
    <linearGradient id="New_Gradient_Swatch_1" gradientUnits="userSpaceOnUse" x1="36.343" x2="155.657" y1="175.657"
        y2="56.343">
        <stop offset="0" stop-color="#34cdfa" />
        <stop offset="1" stop-color="#ccbcd6" />
    </linearGradient>
    <path
        d="m180.521 81.4a8 8 0 0 0 -8.959-.056l-40.462 26.972-27.945-55.894a8 8 0 0 0 -14.31 0l-27.945 55.894-40.463-26.972a8 8 0 0 0 -12.247 8.391l16 72a8 8 0 0 0 7.81 6.265h128a8 8 0 0 0 7.81-6.265l16-72a8 8 0 0 0 -3.289-8.335z"
        fill="url(#New_Gradient_Swatch_1)" />
    <path d="m24 160v24a8 8 0 0 0 8 8h128a8 8 0 0 0 8-8v-24" fill="#99e6fd" />
    <path d="m40 184v-24h-16v24a8 8 0 0 0 8 8h16a8 8 0 0 1 -8-8z" fill="#67d9fb" />
    <g fill="#ccf2fe">
        <circle cx="96" cy="32" r="8" />
        <circle cx="184" cy="72" r="8" />
        <circle cx="8" cy="72" r="8" />
    </g>
</svg>